<svg version="1.0" xmlns="http://www.w3.org/2000/svg" width="34.000000pt" height="34.000000pt" viewBox="0 0 34.000000 34.000000" preserveAspectRatio="xMidYMid meet">
<metadata>
Created by potrace 1.16, written by Peter Selinger 2001-2019
</metadata>
<g transform="translate(0.000000,34.000000) scale(0.100000,-0.100000)" fill="#000000" stroke="none">
<path d="M95 331 c-28 -12 -76 -61 -86 -89 -14 -37 -11 -120 6 -152 18 -35 13 -33 71 -19 38 10 44 15 44 38 0 14 -7 34 -15 44 -16 22 -9 84 12 108 17 20 84 30 98 15 6 -6 12 -34 12 -62 2 -57 -23 -109 -60 -124 l-22 -9 23 0 c12 -1 40 -10 62 -21 22 -11 43 -20 48 -20 4 0 19 18 31 41 19 33 23 52 19 103 -4 65 -20 95 -67 131 -29 22 -140 32 -176 16z"/>
</g>
</svg>