<svg xmlns="http://www.w3.org/2000/svg" width="41"><rect x="0" y="40.0%" width="2" height="60.0%" rx="1.5" ry="1.5" fill="#ee924f"></rect><rect x="3" y="39.3%" width="2" height="60.7%" rx="1.5" ry="1.5" fill="#ee924f"></rect><rect x="6" y="39.2%" width="2" height="60.8%" rx="1.5" ry="1.5" fill="#ee924f"></rect><rect x="9" y="37.9%" width="2" height="62.1%" rx="1.5" ry="1.5" fill="#ee924f"></rect><rect x="12" y="37.8%" width="2" height="62.2%" rx="1.5" ry="1.5" fill="#ee924f"></rect><rect x="15" y="36.0%" width="2" height="64.0%" rx="1.5" ry="1.5" fill="#ee924f"></rect><rect x="18" y="32.2%" width="2" height="67.8%" rx="1.5" ry="1.5" fill="#ee924f"></rect><rect x="21" y="29.3%" width="2" height="70.7%" rx="1.5" ry="1.5" fill="#e95b3b"></rect><rect x="24" y="20.5%" width="2" height="79.5%" rx="1.5" ry="1.5" fill="#e95b3b"></rect><rect x="27" y="15.1%" width="2" height="84.9%" rx="1.5" ry="1.5" fill="#d1352b"></rect><rect x="30" y="8.2%" width="2" height="91.8%" rx="1.5" ry="1.5" fill="#a2202c"></rect><rect x="33" y="0.0%" width="2" height="100.0%" rx="1.5" ry="1.5" fill="#a2202c"></rect><rect x="36" y="6.8%" width="2" height="93.2%" rx="1.5" ry="1.5" fill="#a2202c"></rect><rect x="39" y="3.7%" width="2" height="96.3%" rx="1.5" ry="1.5" fill="#a2202c"></rect></svg>