<svg version="1.0" xmlns="http://www.w3.org/2000/svg" width="40.000000pt" height="40.000000pt" viewBox="0 0 40.000000 40.000000" preserveAspectRatio="xMidYMid meet">
    <g transform="translate(0.000000,40.000000) scale(0.100000,-0.100000)" fill="#000000" stroke="none">
        <path d="M256 331 c-20 -22 -56 -29 -56 -11 0 25 -28 6 -53 -35 -28 -48 -33
-65 -18 -65 18 0 41 31 41 55 0 28 15 41 24 20 3 -8 16 -15 28 -15 21 -1 20
-3 -12 -28 -87 -67 -114 -125 -86 -180 19 -36 41 -40 86 -17 64 33 104 142 65
175 -35 29 -115 -79 -101 -136 10 -40 22 -27 22 25 0 50 26 107 44 96 15 -9
12 -83 -5 -115 -21 -41 -49 -54 -69 -34 -31 31 -15 98 38 154 48 51 78 98 74
116 -3 14 -6 13 -22 -5z"/>
    </g>
</svg>
