<svg width="336" height="149" viewBox="0 0 336 149" fill="none" xmlns="http://www.w3.org/2000/svg">
<path d="M48.2639 0.945732C46.2037 1.31114 44.8646 2.82497 44.092 5.66124C43.5598 7.57528 43.6628 11.7862 44.3323 16.9541C44.9161 21.426 45.2766 26.0023 45.0706 26.2111C44.8817 26.4199 42.5468 25.2019 40.7785 23.9664C39.8685 23.34 37.98 21.9132 36.555 20.7996C31.1813 16.6061 29.4987 15.3881 28.2454 14.7442C26.9921 14.1178 26.872 14.083 25.2238 14.083C23.6786 14.083 23.4211 14.1352 22.5283 14.5876C20.966 15.3881 19.747 16.6061 19.0088 18.1025C18.4594 19.2683 18.3736 19.5642 18.3736 20.7474C18.3736 22.6266 18.7684 23.688 19.9359 24.9583C21.0518 26.1937 22.5283 27.2029 24.8804 28.3862C26.5458 29.2214 27.7647 29.726 33.9797 32.1794C36.7954 33.2931 39.199 34.4589 39.7312 34.9809C39.9372 35.1897 39.9372 35.2593 39.7312 35.4681C38.9758 36.2163 35.0785 38.113 29.0867 40.6534C27.0608 41.5234 24.6401 42.6197 23.7301 43.0895C18.7341 45.6821 17.2404 48.5706 18.9745 52.2769C20.1762 54.7999 21.9618 56.2616 24.0907 56.4182C26.9921 56.627 30.3572 54.8869 37.0014 49.719C40.7441 46.8132 41.1562 46.5174 43.1477 45.3341L44.9332 44.2553L44.8302 47.1786C44.7616 48.7794 44.5212 51.7897 44.2808 53.8429C43.2851 62.5083 43.5598 65.7448 45.4826 67.9024C46.6844 69.2423 47.5085 69.5729 49.6889 69.5729C51.8521 69.5729 53.0539 69.1727 54.1356 68.1112C56.3503 65.9188 56.6593 62.2821 55.3717 53.3209C54.6506 48.3096 54.2214 44.3075 54.4103 44.1335C54.7365 43.8029 58.8569 46.4652 64.059 50.3628C70.0508 54.8521 71.0981 55.5656 72.3857 55.9484C74.0339 56.4704 75.7164 56.3486 76.9697 55.67C78.2745 54.9391 79.6651 53.5123 80.2145 52.3291C80.6266 51.4417 80.6781 51.1111 80.6781 49.5798C80.6609 47.5788 80.4721 46.761 79.7166 45.6125C78.5148 43.7681 75.8194 42.3065 68.8318 39.6616C64.0075 37.852 61.2777 36.5991 60.3334 35.7465L59.7325 35.2245L60.2476 34.7895C61.003 34.1457 64.3165 32.5274 69.0035 30.5264C75.7679 27.6205 76.3344 27.3595 77.6221 26.4895C79.5106 25.2019 80.4206 23.8446 80.7639 21.7914C81.2961 18.7289 79.545 15.3533 76.9353 14.3788C73.1926 12.952 70.4628 14.3614 60.0072 23.0964C56.419 26.0893 56.1099 26.3155 55.303 26.4199C54.685 26.5069 54.3931 26.4721 54.2901 26.3155C54.0669 25.9849 54.2557 21.4608 54.5648 19.6512C54.7193 18.7811 55.0283 17.3369 55.2515 16.4321C55.8009 14.2222 55.8524 13.8568 56.0413 11.2642C56.2301 8.5845 56.0069 5.74824 55.5262 4.63461C54.3759 2.02456 51.2341 0.423721 48.2639 0.945732Z" fill="#75A99C"/>
<path d="M136.39 1.05012C128.819 2.09415 121.917 5.64383 116.2 11.4556C112.68 15.04 110.826 17.8415 109.384 21.8262C107.839 26.0893 107.307 29.6564 107.307 36.1815L107.289 41.0536L108.045 43.4027C110.397 50.7804 112.68 54.9739 116.543 59.0282C120.938 63.6393 126.501 66.6496 133.162 68.0242C142.897 70.0079 154.091 67.4674 161.542 61.5861C164.289 59.411 165.285 57.9668 165.302 56.1746C165.302 54.8347 164.77 53.6689 163.379 51.9985L162.383 50.7978L161.353 50.7456C159.98 50.676 158.022 51.111 156.735 51.7375C156.168 52.0333 154.898 52.8511 153.902 53.5819C150.726 55.931 148.872 56.8532 146.039 57.5144C144.099 57.9668 139.034 58.1582 136.819 57.8624C131.274 57.1142 125.9 53.2339 122.243 47.3352C120.441 44.4293 119.376 40.984 119.033 36.8775C118.054 25.8457 124.286 15.736 134.004 12.5344C138.965 10.9161 144.871 11.3512 150.056 13.735C150.726 14.0482 152.219 14.9356 153.387 15.736C154.554 16.5191 156.014 17.4239 156.632 17.7197C157.662 18.2069 157.919 18.2591 159.396 18.2591C160.821 18.2591 161.13 18.1895 161.902 17.7893C163.705 16.8323 164.632 15.214 164.632 13.039C164.632 11.8384 164.546 11.5078 164.117 10.6377C163.07 8.53229 160.615 6.58345 156.22 4.4258C152.494 2.58135 148.494 1.38073 144.597 0.96312C142.348 0.70211 138.588 0.754311 136.39 1.05012Z" fill="#75A99C"/>
<path d="M253.411 1.13716C250.732 1.41557 245.273 2.9642 242.766 4.14742C238.577 6.09627 235.59 9.57635 233.924 14.4137C231.435 21.6348 233.426 29.204 238.92 33.3975C242.234 35.9205 245.616 37.33 254.887 39.9922C261.291 41.8367 262.819 42.3761 264.999 43.5071C266.527 44.3075 268.021 45.5952 268.502 46.5348C268.639 46.8132 268.879 47.5266 269.017 48.1356C269.875 51.8419 268.347 55.061 264.931 56.6966C262.493 57.8624 258.939 58.367 255.488 58.0538C250.389 57.5666 246.646 56.2442 241.753 53.1295C238.594 51.1285 238.199 50.9719 236.397 50.9719C235.092 50.9719 234.697 51.0415 233.907 51.4243C231.16 52.7293 230.285 55.0262 231.504 57.6536C233.341 61.5861 240.981 65.7796 249.445 67.5022C252.672 68.1635 254.355 68.3375 257.686 68.3375C265.085 68.3375 271.094 66.2146 275.266 62.1255C277.996 59.4459 279.575 56.279 280.348 51.8767C280.76 49.5624 280.64 45.4386 280.108 43.6637C278.631 38.6698 274.528 34.9113 267.42 32.0229C265.188 31.118 263.506 30.596 258.029 29.1518C251.076 27.3247 248.294 26.1241 246.251 24.0883C244.672 22.5222 244.122 21.3216 244.122 19.4772C244.122 18.2591 244.191 17.9285 244.689 16.8845C245.462 15.2315 246.955 13.7698 248.861 12.8302C250.784 11.8732 251.968 11.56 254.355 11.4382C258.183 11.2468 261.102 12.0298 267.042 14.8313C271.111 16.7627 271.678 16.9541 273.051 16.9541C274.94 16.9541 277.447 15.1967 278.116 13.4044C278.477 12.4474 278.408 11.0728 277.944 10.0984C276.434 6.89669 269.601 3.13821 262.716 1.74617C259.162 1.01536 256.312 0.823952 253.411 1.13716Z" fill="#75A99C"/>
<path d="M193.561 1.46774C188.994 2.09415 184.874 3.81679 181.972 6.28765C177.234 10.3245 174.865 17.1803 175.963 23.6706C177.148 30.6134 181.303 34.9113 189.681 37.8172C190.797 38.2174 194.162 39.157 197.149 39.9052C200.137 40.6708 203.33 41.5582 204.24 41.8888C207.279 42.9851 209.494 44.5337 210.695 46.3607C211.588 47.7006 211.828 48.5358 211.828 50.1192C211.794 53.8951 207.966 57.2534 202.66 58.193C201.098 58.4714 197.716 58.4366 195.879 58.106C191.638 57.3578 187.209 55.3915 183.209 52.4857C181.354 51.1459 180.582 50.8848 178.315 50.8848H176.719L175.792 51.7723C170.469 56.8706 176.221 63.5001 188.754 66.7192C194.557 68.2156 200.738 68.6158 205.751 67.8328C210.644 67.0672 214.198 65.3968 217.254 62.4213C218.971 60.7683 220.121 59.2544 221.117 57.3056C224.756 50.2062 223.589 42.2021 218.146 36.9471C216.55 35.3811 215.314 34.4937 213.219 33.4497C211.159 32.4056 209.511 31.8488 203.588 30.1958C196.497 28.2121 194.282 27.4291 191.329 25.8283C189.939 25.0801 188.084 23.2356 187.535 22.0872C186.402 19.7033 187.312 15.6665 189.424 13.8046C191.158 12.256 193.733 11.4904 197.167 11.4904C201.785 11.5078 206.146 12.6736 210.438 15.0748C213.099 16.5539 214.335 17.0063 215.794 17.0063C217.219 17.0237 218.078 16.6409 219.142 15.5099C220.756 13.8046 221.237 11.56 220.361 9.73292C219.863 8.7063 218.421 7.19247 217.082 6.30505C213.992 4.2518 209.081 2.42476 204.807 1.71134C202.815 1.39813 195.329 1.22413 193.561 1.46774Z" fill="#75A99C"/>
<path d="M300.092 33.3105C297.825 33.3975 295.473 33.5019 294.855 33.5541C291.439 33.8325 289.859 35.4507 289.808 38.7046C289.773 42.1499 291.078 43.6811 294.478 44.0987C295.216 44.2031 299.405 44.2901 303.8 44.3249C310.942 44.3597 311.886 44.3249 312.951 44.0465C316.179 43.2113 317.483 41.8715 317.655 39.2788C317.758 37.6258 317.483 36.634 316.608 35.6421C314.702 33.4497 311.011 32.9277 300.092 33.3105Z" fill="#75A99C"/>
<path d="M186.007 81.4573C181.852 81.8053 180.685 82.0141 178.367 82.7971C173.371 84.485 169.491 86.834 165.851 90.3837C160.477 95.6038 157.13 102.477 156.031 110.481C155.687 113.091 155.773 118.868 156.202 121.235C158.211 132.127 164.306 140.532 173.646 145.282C182.882 149.98 193.647 150.241 203.21 145.978C207.262 144.168 212.309 140.392 213.305 138.409C213.7 137.626 213.717 137.069 213.442 134.65L213.253 132.91L211.863 132.11C210.077 131.083 209.373 130.874 208.171 130.961C206.901 131.048 205.837 131.588 203.347 133.363C200.789 135.207 199.587 135.868 197.544 136.617C192.256 138.548 187.02 138.739 182.505 137.191C175.345 134.737 169.92 128.16 168.117 119.738C167.602 117.32 167.568 112.099 168.049 109.89C169.062 105.139 171.122 101.276 174.332 98.0399C177.062 95.2732 180.152 93.4288 183.552 92.524C186.024 91.8802 189.612 91.7758 192.514 92.2804C196.377 92.9416 199.433 94.177 203.639 96.7523C206.317 98.4053 207.159 98.7707 208.326 98.7707C209.528 98.7881 210.489 98.3183 211.691 97.1003C214.215 94.525 214.18 91.915 211.537 89.0613C208.515 85.7726 201.441 82.5535 195.141 81.5965C193.595 81.3529 188.187 81.2833 186.007 81.4573Z" fill="#75A99C"/>
<path d="M308.762 81.614C303.834 82.049 302.976 82.2056 301.431 82.8842C297.619 84.5546 295.559 85.8423 293.722 87.6867C290.392 91.0276 288.64 95.5517 288.64 100.754C288.657 106.897 290.821 111.247 295.405 114.344C298.478 116.415 301.946 117.772 309.878 119.964C315.578 121.548 317.535 122.209 319.715 123.288C322.892 124.854 324.316 126.733 324.523 129.656C324.729 132.771 322.788 135.851 319.715 137.278C318.033 138.061 316.539 138.287 313.226 138.287C307.217 138.287 303.972 137.347 298.701 134.111C293.722 131.048 292.435 130.544 290.46 130.909C287.233 131.518 285.859 134.842 287.456 138.148C289.31 141.976 294.529 145.195 301.963 147.109C306.805 148.362 308.521 148.588 313.054 148.588C317.518 148.588 319.303 148.344 322.497 147.283C331.75 144.221 336.764 136.721 335.905 127.238C335.493 122.801 334.171 119.808 331.476 117.163C328.471 114.222 324.729 112.534 315.303 109.872C309.946 108.358 308.264 107.802 306.255 106.845C304.212 105.853 302.907 104.948 301.671 103.643C300.263 102.129 299.748 100.946 299.748 99.171C299.748 97.9181 299.817 97.6745 300.332 96.6827C301.311 94.8731 303.165 93.4288 305.654 92.5588C307.577 91.8976 309.157 91.7236 311.972 91.828C316.007 91.9846 318.033 92.5936 323.304 95.2907C326.548 96.9611 326.857 97.0829 327.973 97.1351C330.257 97.2743 332.111 96.2477 333.107 94.3163C333.502 93.5506 333.57 93.22 333.57 91.9498C333.57 90.6274 333.519 90.3664 333.055 89.5486C331.75 87.1299 328.952 85.4595 322.497 83.2148C319.853 82.31 319.2 82.1534 317.174 81.9272C314.719 81.6836 310.067 81.4922 308.762 81.614Z" fill="#75A99C"/>
<path d="M230.714 81.9446C228.791 82.3622 227.366 83.3366 226.662 84.7113C225.821 86.3643 225.821 86.4339 225.838 105.609C225.855 128.943 226.198 145.16 226.713 146.535C227.211 147.892 228.808 148.623 230.8 148.449C233.976 148.17 236.208 146.604 236.946 144.186C237.221 143.298 237.255 142.498 237.203 136.547L237.135 129.9L237.598 129.03C237.907 128.456 239.35 126.89 241.787 124.454C245.187 121.043 247.075 119.442 247.676 119.442C248.346 119.46 250.458 121.983 255.454 128.665C264.673 141.002 269.394 146.639 271.266 147.544C272.176 147.979 274.356 147.996 275.627 147.579C276.914 147.144 278.082 146.256 278.665 145.247C279.077 144.516 279.146 144.238 279.146 143.003C279.146 141.698 279.095 141.489 278.425 140.132C278.03 139.331 277.326 138.2 276.88 137.626C276.416 137.052 271.626 130.874 266.218 123.914L256.363 111.229L256.844 110.516C257.531 109.455 259.643 107.419 264.072 103.521C275.884 93.1505 277.601 90.9754 277.601 86.3817C277.601 84.8853 277.549 84.6591 277.12 83.8934C276.262 82.4144 274.802 81.7532 272.725 81.9098C268.673 82.1882 265.909 84.5721 251.419 100.215C247.882 104.043 243.865 108.306 242.491 109.716C240.174 112.065 237.787 114.222 237.495 114.222C237.169 114.222 237.152 112.082 237.427 104.008C237.839 91.7932 237.564 87.8607 236.122 84.7113C235.006 82.2926 233.238 81.3878 230.714 81.9446Z" fill="#75A99C"/>
<path d="M134.999 82.2055C132.888 82.5709 131.531 84.05 131.085 86.4686C130.948 87.182 130.896 95.8474 130.896 114.883C130.896 144.516 130.862 143.246 131.789 145.073C132.321 146.152 133.626 147.353 134.587 147.683C137.849 148.814 140.991 146.865 141.987 143.055C142.348 141.663 142.33 88.0173 141.97 86.4164C141.644 85.0418 141.214 84.1892 140.476 83.4932C139.686 82.7275 139.034 82.4317 137.746 82.2229C136.527 82.0141 136.133 82.0141 134.999 82.2055Z" fill="#75A99C"/>
<path d="M4.58734 82.4665C3.28253 82.7623 1.92622 83.4757 1.32532 84.2066C0.0205111 85.7378 -0.374365 88.1216 0.38105 89.7225C0.861768 90.6969 2.06356 91.8627 3.05934 92.3151C4.32981 92.872 5.96082 92.9938 13.3261 92.9938H20.4682L20.6056 95.0296C20.7601 97.3265 20.7944 117.946 20.6742 133.537C20.6056 143.681 20.6056 143.716 20.9833 144.551C21.464 145.647 22.9748 147.126 24.2281 147.735C25.0694 148.153 25.4471 148.223 26.5974 148.223C29.619 148.223 31.25 146.587 32.1256 142.672C32.4175 141.384 32.4347 140.427 32.3488 129.709C32.2115 111.978 32.2458 93.22 32.4003 93.046C32.4862 92.9764 35.6108 92.9242 39.3536 92.959C48.1954 93.0112 49.8435 92.7849 51.3028 91.3059C52.3158 90.2619 52.848 88.9569 52.848 87.5126C52.8308 84.7112 51.2685 83.0059 48.161 82.4491C46.2381 82.1011 6.14967 82.1185 4.58734 82.4665Z" fill="#75A99C"/>
<path d="M69.3471 82.3969C66.7375 82.7797 65.261 83.9977 64.6429 86.3294C64.145 88.1912 64.0935 90.4533 64.0249 112.917C63.939 136.199 64.0077 140.114 64.5399 143.333C64.8489 145.108 65.0893 145.665 65.8619 146.326C67.6302 147.84 70.7892 148.344 72.1799 147.318C72.7808 146.865 73.6392 145.178 74.0513 143.629C74.7208 141.123 74.8238 139.261 74.5835 134.111C74.4633 131.518 74.4118 128.856 74.4805 128.195C74.6522 126.472 74.944 124.958 75.1672 124.715C75.5621 124.28 78.3606 124.106 83.6656 124.175C88.5072 124.245 88.9879 124.28 89.6918 124.593C90.6704 125.045 91.3056 125.811 92.0095 127.36C92.6276 128.699 94.6706 131.553 98.9799 137.034C100.525 139.018 102.345 141.402 102.997 142.341C104.697 144.76 106.689 146.744 108.165 147.474C109.264 148.031 109.453 148.066 111.067 148.066C113.092 148.066 113.779 147.788 114.912 146.483C115.822 145.439 116.183 144.203 116.097 142.515C115.977 140.288 115.084 138.861 109.607 132.232C105.95 127.812 103.993 125.08 103.547 123.74L103.272 122.94L103.907 122.435C104.251 122.157 105.315 121.53 106.277 121.043C108.096 120.121 109.83 118.816 111.633 117.024C114.14 114.518 115.719 111.473 116.578 107.523C116.99 105.592 116.99 101.294 116.578 99.1883C115.342 92.7675 112.114 88.1564 107.032 85.529C103.409 83.6497 99.4607 82.7623 93.0396 82.3795C89.5029 82.1707 70.7892 82.1881 69.3471 82.3969ZM93.4689 92.4543L97.3318 92.5761L98.5336 93.2548C99.701 93.916 101.109 95.0644 103.083 96.9958C103.804 97.6919 104.165 98.2139 104.44 98.9621C105.143 100.911 105.298 104.809 104.766 107.088C104.182 109.559 102.293 111.751 99.5637 113.109C96.7824 114.501 94.1556 114.953 88.8334 114.988C84.5927 115.005 75.6651 114.779 75.1672 114.64C74.841 114.553 74.7895 114.379 74.7037 113.126C74.635 112.343 74.6178 107.558 74.6693 102.512C74.738 92.5587 74.7037 92.9763 75.6994 92.5413C76.2832 92.2803 86.5843 92.2281 93.4689 92.4543Z" fill="#75A99C"/>
</svg>
