<svg width="200" height="192" viewBox="0 0 200 192" fill="none" xmlns="http://www.w3.org/2000/svg">
<path d="M86.568 61.9166C134.273 46.187 151.209 117.736 108.906 132.217C61.3604 148.494 41.8379 76.6762 86.568 61.9166ZM132.417 140.55L136.899 147.161C144.753 184.277 211.094 158.732 197.302 79.3973C179.729 -21.6664 35.8046 -25.656 5.24507 66.4236C-21.1364 145.932 57.625 206.408 124.519 187.53C124.733 187.469 124.945 187.41 125.155 187.351C130.674 185.797 134.728 184.657 136.764 179.481C143.843 161.493 125.812 164.431 109.344 167.114C102.841 168.174 96.5819 169.194 92.2084 168.87C47.6972 165.572 10.9302 125.064 26.772 74.5571C39.6196 33.6013 87.14 7.10166 136.391 31.0692C193.422 58.8224 179.893 136.923 156.988 140.406C151.775 131.383 152.899 111.408 153.971 92.3403C155.637 62.7232 157.179 35.2976 134.661 54.5145C119.445 43.1276 99.4156 34.1485 74.8446 44.61C57.3266 52.0719 41.7434 68.9457 40.3358 93.0327C37.3863 143.57 94.4268 168.273 132.417 140.55Z" fill="#75A99C"/>
<path d="M86.568 61.9166C134.273 46.187 151.209 117.736 108.906 132.217C61.3604 148.494 41.8379 76.6762 86.568 61.9166ZM132.417 140.55L136.899 147.161C144.753 184.277 211.094 158.732 197.302 79.3973C179.729 -21.6664 35.8046 -25.656 5.24507 66.4236C-21.1364 145.932 57.625 206.408 124.519 187.53C124.733 187.469 124.945 187.41 125.155 187.351C130.674 185.797 134.728 184.657 136.764 179.481C143.843 161.493 125.812 164.431 109.344 167.114C102.841 168.174 96.5819 169.194 92.2084 168.87C47.6972 165.572 10.9302 125.064 26.772 74.5571C39.6196 33.6013 87.14 7.10166 136.391 31.0692C193.422 58.8224 179.893 136.923 156.988 140.406C151.775 131.383 152.899 111.408 153.971 92.3403C155.637 62.7232 157.179 35.2976 134.661 54.5145C119.445 43.1276 99.4156 34.1485 74.8446 44.61C57.3266 52.0719 41.7434 68.9457 40.3358 93.0327C37.3863 143.57 94.4268 168.273 132.417 140.55Z" stroke="white"/>
</svg>
