<svg width="94" height="191" viewBox="0 0 94 191" fill="none" xmlns="http://www.w3.org/2000/svg">
<path d="M59.8865 0.0875549C51.1402 0.525253 42.784 2.76155 35.7329 6.52585C19.8162 15.0413 10.1548 30.7749 8.12546 51.4904C7.81508 54.6101 7.75937 55.971 7.75937 60.2446C7.75937 64.3431 7.82304 65.887 8.08567 68.76C9.97975 89.4596 18.6384 103.602 34.6187 112.133C35.2077 112.443 35.709 112.714 35.725 112.73C35.7409 112.746 27.703 130.342 17.8744 151.829C8.04587 173.309 0 190.912 0 190.944C0 190.976 5.34004 190.992 11.8659 190.984L23.7317 190.96L40.0225 154.392L56.3132 117.823L64.8445 117.799L73.3758 117.783V154.392V191H83.6819H93.9879V95.5V1.52588e-05L77.538 0.0159302C68.4815 0.0159302 60.547 0.04776 59.8865 0.0875549ZM73.3758 59.019V100.681L66.3168 100.649C60.4037 100.625 59.0588 100.593 58.056 100.482C51.4745 99.7498 46.405 97.8 42.02 94.3222C41.0013 93.5104 38.9481 91.4492 38.0886 90.3669C33.1226 84.1435 30.4804 75.6042 29.9154 63.9452C29.8119 61.8124 29.8597 56.4883 30.0029 54.5544C30.6635 45.45 32.5018 38.4945 35.8364 32.5098C36.4094 31.4673 37.9294 29.2071 38.6297 28.3317C43.0546 22.8245 48.8323 19.3308 55.7322 17.9938C58.7086 17.4128 59.4726 17.373 67.0728 17.3571L73.3758 17.3492V59.019Z" fill="#75A99C"/>
</svg>
