<svg width="44" height="44" fill="none" xmlns="http://www.w3.org/2000/svg"><rect x="6" y="6" width="32" height="32" rx="9" fill="#FFE033"/><rect x="6" y="6" width="32" height="32" rx="9" fill="url(#paint0_linear)" fill-opacity=".2"/><path fill-rule="evenodd" clip-rule="evenodd" d="M24.76 34.17c-2.9.34-5.87-.23-8.4-1.77a12.93 12.93 0 0 1-5.74-7.93 12.08 12.08 0 0 1 1.4-9.2 11.72 11.72 0 0 1 7.28-5.23 10.66 10.66 0 0 1 13.04 8c.6 2.65.15 5.33-1.26 7.56a9.54 9.54 0 0 1-6.02 4.17 8.77 8.77 0 0 1-6.71-1.21 8.48 8.48 0 0 1-3.63-5.4 7.76 7.76 0 0 1 1.14-5.9 7.36 7.36 0 0 1 4.76-3.11 6.63 6.63 0 0 1 5.07 1.09 6.3 6.3 0 0 1 2.56 4.14 5.59 5.59 0 0 1-1.03 4.26 5.17 5.17 0 0 1-3.53 2.02 4.47 4.47 0 0 1-3.42-1 4.14 4.14 0 0 1-1.46-2.96 3.4 3.4 0 0 1 1-2.59 3.06 3.06 0 0 1 2.49-.83c.73.1 1.33.5 1.7 1.14a1.13 1.13 0 0 1-1.96 1.1l-.06-.01a.82.82 0 0 0-.6.2c-.23.24-.34.54-.32.9.01.5.27 1 .65 1.32.6.5 1.27.55 1.72.5a2.96 2.96 0 0 0 2-1.15c.53-.71.75-1.62.6-2.55a4.02 4.02 0 0 0-1.64-2.66 4.4 4.4 0 0 0-3.37-.7 5.1 5.1 0 0 0-3.3 2.14 5.52 5.52 0 0 0-.8 4.2 6.21 6.21 0 0 0 2.66 3.96 6.55 6.55 0 0 0 5.01.9 7.29 7.29 0 0 0 4.6-3.18 7.67 7.67 0 0 0 .97-5.85 8.4 8.4 0 0 0-10.34-6.31 9.46 9.46 0 0 0-5.88 4.21 9.83 9.83 0 0 0-1.14 7.5c.66 2.72 2.38 5.1 4.72 6.53a10.92 10.92 0 0 0 6.99 1.47 11.4 11.4 0 0 0 6.6-3.13l1.56 1.62a13.6 13.6 0 0 1-7.91 3.74z" fill="#000"/><defs><linearGradient id="paint0_linear" x1="33.68" y1="9.69" x2="12.42" y2="37.87" gradientUnits="userSpaceOnUse"><stop stop-color="#fff"/><stop offset="1" stop-color="#fff" stop-opacity="0"/></linearGradient></defs></svg>