<svg fill="none" xmlns="http://www.w3.org/2000/svg"><path fill-rule="evenodd" clip-rule="evenodd" d="M36 21.5a14.5 14.5 0 1 1-29 0 14.5 14.5 0 0 1 29 0z" fill="#FC0"/><path fill-rule="evenodd" clip-rule="evenodd" d="M36 21.5a14.5 14.5 0 1 1-29 0 14.5 14.5 0 0 1 29 0z" fill="url(#paint0_linear)" fill-opacity=".4"/><path fill-rule="evenodd" clip-rule="evenodd" d="M20.54 17.52c1.78 1.2 4.29.55 5.61-1.47 1.33-2.02.96-4.64-.8-5.85-1.78-1.2-4.3-.55-5.62 1.47-1.32 2.02-.96 4.64.81 5.85z" fill="#F33"/><path fill-rule="evenodd" clip-rule="evenodd" d="M11.92 6.08C14.78 23.9 25.94 22.71 38.35 16c3.36-2.03 3.11 2.38 1.53 4.06-2.96 3.14-14.72 8.48-14.24 16.5.14 1.69-.06 2.32-4.12 2.44-5.33-.06-5.82-1.31-6.35-2.4-3.64-7.4-7.06-18.73-7.1-28.31.02-2.6 3.38-4.63 3.85-2.2z" fill="#F33"/><defs><linearGradient id="paint0_linear" x1="30.7" y1="9.3" x2="11.44" y2="34.83" gradientUnits="userSpaceOnUse"><stop stop-color="#fff"/><stop offset="1" stop-color="#fff" stop-opacity="0"/></linearGradient></defs></svg>