<svg width="44" height="44" fill="none" xmlns="http://www.w3.org/2000/svg"><mask id="a" mask-type="alpha" maskUnits="userSpaceOnUse" x="5" y="5" width="34" height="34"><path d="M22 39a17 17 0 1 0 0-34 17 17 0 0 0 0 34z" fill="#64BC51"/></mask><g mask="url(#a)"><path fill="#6CBF5C" d="M0 0h44v44H0z"/><path d="M-.33 35.96-5 33.52 15.5-7l4.67 2.45-20.5 40.51zM29.77.45 25.09-2 4.6 38.52l4.68 2.44L29.77.45zm9.63 5L34.73 3l-20.5 40.52 4.68 2.44L39.4 5.45zm9.6 5.03-4.67-2.44-20.5 40.51L28.51 51 49 10.48z" fill="#7BD169"/><path d="m13.63 12.48-.4 2.21a10.7 10.7 0 0 0 5.45 11.43l1.96 1.08a10.76 10.76 0 0 0 12.55-1.64l1.61-1.53a10.73 10.73 0 0 0 2.3-12.44l-.95-2.04a10.75 10.75 0 0 0-11.13-6.04l-2.2.3c-4.64.59-8.34 4.1-9.2 8.67z" fill="#fff"/><path d="M29.75 13.57a18.8 18.8 0 0 1-.83 4.26c-.11.35-.46.72-.82.82-1.41.4-2.84.57-4.29.55a1.32 1.32 0 0 1-1.01-.59 24.2 24.2 0 0 1-1.85-3.84c-.16-.39-.02-.93.24-1.21.95-1.03 1.98-2 3.1-2.94.3-.25.83-.3 1.18-.18 1.35.52 2.61 1.2 3.76 2.07.33.22.53.68.52 1.06zm-5.54 12.7a12.25 12.25 0 0 1-2.7-2.55c-.2-.26-.6-.5-.93-.51a11.04 11.04 0 0 1-3.48-.66c-.13-.04-.24.02-.22.16.04.9.5 1.9 1.02 2.71a10.07 10.07 0 0 0 4.04 2.06 4.76 4.76 0 0 0 2.27-.97c.1-.06.1-.18 0-.25zm13.15-13.34a10.24 10.24 0 0 0-1.82-4.16A5.39 5.39 0 0 0 32.9 7.6c-.13 0-.22.08-.18.2.35 1.1.5 2.27.45 3.54 0 .34.2.76.46.96.9.74 1.68 1.72 2.4 2.83.06.1.19.11.27.03.46-.6.93-1.53 1.05-2.22zm-1.95 7a11.85 11.85 0 0 1-3.27 1.72c-.32.1-.66.42-.76.71a11.36 11.36 0 0 1-1.74 3.12c-.06.1-.04.21.08.26.83.27 1.8.34 2.75.09a16.4 16.4 0 0 0 3.42-3.37c.17-.69.09-1.72-.19-2.44-.08-.13-.2-.17-.29-.1zM26.45 3.46a11.1 11.1 0 0 0-4.5.47c-.79.5-1.44 1.2-1.9 1.92-.1.1-.04.2.12.21 1.16.01 2.3.19 3.47.56.3.09.71.01.95-.13.96-.58 2.16-.99 3.47-1.33.13-.04.15-.14.1-.25a4.35 4.35 0 0 0-1.71-1.45zM14.81 17.73c.41-1.29.88-2.43 1.52-3.4.17-.25.25-.69.17-.94-.3-1.22-.42-2.38-.37-3.53.02-.15-.08-.21-.25-.14-.8.4-1.54 1.14-2.02 1.8a11.27 11.27 0 0 0-.72 4.49c.23.63.82 1.38 1.38 1.8.14.06.25.04.3-.08z" fill="#263638"/></g></svg>