<svg xmlns="http://www.w3.org/2000/svg" width="16" height="16" viewBox="0 0 16 16">
    <path fill-rule="evenodd" d="M16 5.547C16 1.067 14.933 0 10.453 0H5.547C1.067 0 0 1.067 0 5.547v4.906C0 14.933 1.067 16 5.547 16h4.906C14.933 16 16 14.933 16 10.453V5.547zM3 5h1.167c.298 0 .41.13.522.454.57 1.662 1.533 3.114 1.928 3.114.148 0 .216-.068.216-.445V6.405c-.026-.489-.197-.7-.324-.857-.078-.097-.14-.172-.14-.28 0-.13.112-.268.298-.268H8.5c.247 0 .333.132.333.429V7.74c0 .247.108.334.182.334.148 0 .272-.087.544-.359.84-.939 1.433-2.385 1.433-2.385A.504.504 0 0111.5 5h1.167c.353 0 .427.182.353.429-.138.631-1.374 2.403-1.55 2.653l-.02.029c-.124.198-.173.297 0 .52.06.084.19.212.34.357.153.15.325.32.463.483.501.563.879 1.039.984 1.367.096.329-.07.495-.404.495h-1.166c-.313 0-.47-.175-.81-.553-.144-.16-.321-.357-.557-.593-.692-.667-.989-.754-1.162-.754-.234 0-.305.067-.305.4v1.047c0 .287-.091.453-.833.453-1.236 0-2.594-.75-3.558-2.134C2.996 7.172 2.6 5.639 2.6 5.33c0-.173.067-.33.4-.33z"></path>
</svg>