<svg fill="none" viewBox="0 0 40 40" xmlns="http://www.w3.org/2000/svg" xmlns:xlink="http://www.w3.org/1999/xlink"><mask id="a" height="40" maskUnits="userSpaceOnUse" width="40" x="0" y="0"><path d="m0 0h40v40h-40z" fill="#fff"/></mask><mask id="b" height="18" maskUnits="userSpaceOnUse" width="25" x="15" y="12"><path clip-rule="evenodd" d="m40 21c0-2.3872-.9519-4.6766-2.6346-6.3641-1.6923-1.6875-3.9808-2.6359-6.3654-2.6359-7.1635 0-16 0-16 0v18h16c2.3846 0 4.6731-.9484 6.3654-2.6359 1.6827-1.6875 2.6346-3.9769 2.6346-6.3641z" fill="#fff" fill-rule="evenodd"/></mask><g mask="url(#a)"><path clip-rule="evenodd" d="m40 21c0-2.3872-.9519-4.6766-2.6346-6.3641-1.6923-1.6875-3.9808-2.6359-6.3654-2.6359-7.1635 0-16 0-16 0v18h16c2.3846 0 4.6731-.9484 6.3654-2.6359 1.6827-1.6875 2.6346-3.9769 2.6346-6.3641z" fill="#acacac" fill-rule="evenodd"/><path clip-rule="evenodd" d="m40 21c0-2.3872-.9519-4.6766-2.6346-6.3641-1.6923-1.6875-3.9808-2.6359-6.3654-2.6359-7.1635 0-16 0-16 0v18h16c2.3846 0 4.6731-.9484 6.3654-2.6359 1.6827-1.6875 2.6346-3.9769 2.6346-6.3641z" fill="#d5d5d5" fill-rule="evenodd"/><g mask="url(#b)"><path clip-rule="evenodd" d="m24 0v19h4.19c2.31 0 4.4-1.377 5.31-3.5s3-3.5 5.31-3.5h1.19v-12z" fill="#999" fill-rule="evenodd"/></g><g clip-rule="evenodd" fill-rule="evenodd"><path d="m15 29.9995c8.2843 0 15-6.7157 15-15 0-8.28426-6.7157-14.99998828-15-14.99998828-8.28427 0-15 6.71572828-15 14.99998828 0 8.2843 6.71573 15 15 15z" fill="#d5d5d5"/><path d="m17.4406 23.323c.24-.787.97-1.323 1.8-1.323h6.58c.31 0 .61.125.83.347.23.222.35.523.35.837 0 .539-.16 1.066-.45 1.515-1.05 1.565-3.54 5.288-3.55 5.301h3.82c.32 0 .61.182.75.466.13.283.08.617-.13.855-1.78 2.042-4.56 5.736-6.89 8.398-.25.285-.67.363-1 .189-.34-.174-.51-.554-.42-.916.68-2.465 1.47-5.362 1.47-5.362s-3.51.988-5.54 1.558c-.28.08-.59.004-.8-.198s-.3-.5-.22-.779c0 0 2.41-7.728 3.4-10.888z" fill="#ffdc55"/></g></g></svg>