<svg fill="none" viewBox="0 0 40 40" xmlns="http://www.w3.org/2000/svg" xmlns:xlink="http://www.w3.org/1999/xlink"><mask id="a" height="40" maskUnits="userSpaceOnUse" width="40" x="0" y="0"><path d="m0 0h40v40h-40z" fill="#fff"/></mask><mask id="b" height="18" maskUnits="userSpaceOnUse" width="25" x="15" y="12"><path clip-rule="evenodd" d="m40 21c0-2.3872-.9519-4.6766-2.6346-6.3641-1.6923-1.6875-3.9808-2.6359-6.3654-2.6359-7.1635 0-16 0-16 0v18h16c2.3846 0 4.6731-.9484 6.3654-2.6359 1.6827-1.6875 2.6346-3.9769 2.6346-6.3641z" fill="#fff" fill-rule="evenodd"/></mask><g mask="url(#a)"><g clip-rule="evenodd" fill-rule="evenodd"><path d="m16.8617 32.9072c-.216-.548-.744-.9072-1.336-.9072-.032 0-.064 0-.096 0-.472 0-.92.2376-1.192.6344-.264.3968-.32.9008-.144 1.3456.656 1.6336 1.552 3.8776 2.048 5.1128.216.548.744.9072 1.336.9072h.096c.472 0 .92-.2376 1.192-.6344.264-.3968.32-.9008.144-1.3456-.656-1.6336-1.552-3.8776-2.048-5.1128z" fill="#4f96ff"/><path d="m30.8617 32.9072c-.216-.548-.744-.9072-1.336-.9072-.032 0-.064 0-.096 0-.472 0-.92.2376-1.192.6344-.264.3968-.32.9008-.144 1.3456.656 1.6336 1.552 3.8776 2.048 5.1128.216.548.744.9072 1.336.9072h.096c.472 0 .92-.2376 1.192-.6344.264-.3968.32-.9008.144-1.3456-.656-1.6336-1.552-3.8776-2.048-5.1128z" fill="#4f96ff"/><path d="m9.80078 35c.82842 0 1.50002-.6716 1.50002-1.5s-.6716-1.5-1.50002-1.5c-.82843 0-1.5.6716-1.5 1.5s.67157 1.5 1.5 1.5z" fill="#0dcaf2"/><path d="m21.8008 35c.8284 0 1.5-.6716 1.5-1.5s-.6716-1.5-1.5-1.5-1.5.6716-1.5 1.5.6716 1.5 1.5 1.5z" fill="#0dcaf2"/><path d="m25.3008 40c1.1045 0 2-.8954 2-2s-.8955-2-2-2c-1.1046 0-2 .8954-2 2s.8954 2 2 2z" fill="#0dcaf2"/><path d="m36.3008 36c1.1045 0 2-.8954 2-2s-.8955-2-2-2c-1.1046 0-2 .8954-2 2s.8954 2 2 2z" fill="#0dcaf2"/><path d="m40 21c0-2.3872-.9519-4.6766-2.6346-6.3641-1.6923-1.6875-3.9808-2.6359-6.3654-2.6359-7.1635 0-16 0-16 0v18h16c2.3846 0 4.6731-.9484 6.3654-2.6359 1.6827-1.6875 2.6346-3.9769 2.6346-6.3641z" fill="#acacac"/><path d="m40 21c0-2.3872-.9519-4.6766-2.6346-6.3641-1.6923-1.6875-3.9808-2.6359-6.3654-2.6359-7.1635 0-16 0-16 0v18h16c2.3846 0 4.6731-.9484 6.3654-2.6359 1.6827-1.6875 2.6346-3.9769 2.6346-6.3641z" fill="#d5d5d5"/></g><g mask="url(#b)"><path clip-rule="evenodd" d="m24 0v19h4.19c2.31 0 4.4-1.377 5.31-3.5s3-3.5 5.31-3.5h1.19v-12z" fill="#999" fill-rule="evenodd"/></g><path clip-rule="evenodd" d="m15 29.9995c8.2843 0 15-6.7157 15-15 0-8.28426-6.7157-14.99998828-15-14.99998828-8.28427 0-15 6.71572828-15 14.99998828 0 8.2843 6.71573 15 15 15z" fill="#d5d5d5" fill-rule="evenodd"/></g></svg>